{"title":"Transformers Prime S02E17 720p HDTV x264 [kary].mp4","uid":7590366,"size":438525031,"categoryP":"video","categoryS":"hd___tv_shows","magnet":"?xt=urn:btih:86e5c626323f5e0924cb74d0cdb0928b3685df26&amp;dn=Transformers+Prime+S02E17+720p+HDTV+x264+%5Bkary%5D.mp4&amp;tr=udp%3A%2F%2Ftracker.openbittorrent.com%3A80&amp;tr=udp%3A%2F%2Fopen.demonii.com%3A1337&amp;tr=udp%3A%2F%2Ftracker.coppersurfer.tk%3A6969&amp;tr=udp%3A%2F%2Fexodus.desync.com%3A6969","seeders":0,"leechers":0,"uploader":"obrany","files":-1,"time":1346524141,"description":"Format                         : MPEG-4\nFormat profile                 : Base Media\nCodec ID                       : isom\nFile size                      : 418 MiB\nDuration                       : 22mn 0s\nOverall bit rate mode          : Variable\nOverall bit rate               : 2 657 Kbps\nWriting application            : Lavf52.64.2\n\nVideo\nID                             : 1\nFormat                         : AVC\nFormat/Info                    : Advanced Video Codec\nFormat profile                 : &lt;a class=&quot;__cf_email__&quot; href=&quot;/cdn-cgi/l/email-protection&quot; data-cfemail=&quot;783519111638344b5649&quot;&gt;[email&amp;#160;protected]&lt;/a&gt;&lt;script data-cfhash='f9e31' type=&quot;text/javascript&quot;&gt;\n/* &lt;![CDATA[ */!function(){try{var t=&quot;currentScript&quot;in document?document.currentScript:function(){for(var t=document.getElementsByTagName(&quot;script&quot;),e=t.length;e--;)if(t[e].getAttribute(&quot;data-cfhash&quot;))return t[e]}();if(t&amp;&amp;t.previousSibling){var e,r,n,i,c=t.previousSibling,a=c.getAttribute(&quot;data-cfemail&quot;);if(a){for(e=&quot;&quot;,r=parseInt(a.substr(0,2),16),n=2;a.length-n;n+=2)i=parseInt(a.substr(n,2),16)^r,e+=String.fromCharCode(i);e=document.createTextNode(e),c.parentNode.replaceChild(e,c)}t.parentNode.removeChild(t);}}catch(u){}}()/* ]]&gt; */&lt;/script&gt;\nFormat settings, CABAC         : Yes\nFormat settings, ReFrames      : 3 frames\nFormat settings, GOP           : M=3, N=33\nCodec ID                       : avc1\nCodec ID/Info                  : Advanced Video Coding\nDuration                       : 22mn 0s\nBit rate mode                  : Variable\nBit rate                       : 2 493 Kbps\nMaximum bit rate               : 4 000 Kbps\nWidth                          : 1 280 pixels\nHeight                         : 720 pixels\nDisplay aspect ratio           : 16:9\nFrame rate mode                : Variable\nFrame rate                     : 29.970 fps\nMinimum frame rate             : 29.970 fps\nMaximum frame rate             : 30.000 fps\nStandard                       : NTSC\nColor space                    : YUV\nChroma subsampling             : 4:2:0\nBit depth                      : 8 bits\nScan type                      : Progressive\nBits/(Pixel*Frame)             : 0.090\nStream size                    : 392 MiB (94%)\n\nAudio\nID                             : 2\nFormat                         : AAC\nFormat/Info                    : Advanced Audio Codec\nFormat profile                 : LC\nCodec ID                       : 40\nDuration                       : 22mn 0s\nDuration_LastFrame             : -21ms\nBit rate mode                  : Variable\nBit rate                       : 157 Kbps\nChannel(s)                     : 2 channels\nChannel positions              : Front: L R\nSampling rate                  : 48.0 KHz\nCompression mode               : Lossy\nStream size                    : 24.8 MiB (6%)\nLanguage                       : English\n\n","torrent":{"xt":"urn:btih:86e5c626323f5e0924cb74d0cdb0928b3685df26","amp;dn":"Transformers+Prime+S02E17+720p+HDTV+x264+%5Bkary%5D.mp4","amp;tr":["udp%3A%2F%2Ftracker.openbittorrent.com%3A80","udp%3A%2F%2Fopen.demonii.com%3A1337","udp%3A%2F%2Ftracker.coppersurfer.tk%3A6969","udp%3A%2F%2Fexodus.desync.com%3A6969"],"infoHash":"86e5c626323f5e0924cb74d0cdb0928b3685df26","infoHashBuffer":{"type":"Buffer","data":[134,229,198,38,50,63,94,9,36,203,116,208,205,176,146,139,54,133,223,38]},"announce":[],"urlList":[]}}